<?xml version="1.0" encoding="UTF-8" standalone="no"?>
<svg width="154px" height="268px" viewBox="0 0 154 268" version="1.1" xmlns="http://www.w3.org/2000/svg" xmlns:xlink="http://www.w3.org/1999/xlink">
    <!-- Generator: Sketch 40.3 (33839) - http://www.bohemiancoding.com/sketch -->
    <title>Group 7</title>
    <desc>Created with Sketch.</desc>
    <defs>
        <rect id="path-1" x="32" y="82" width="90" height="104"></rect>
        <mask id="mask-2" maskContentUnits="userSpaceOnUse" maskUnits="objectBoundingBox" x="-2" y="-2" width="94" height="108">
            <rect x="30" y="80" width="94" height="108" fill="white"></rect>
            <use xlink:href="#path-1" fill="black"></use>
        </mask>
    </defs>
    <g id="Devices" stroke="none" stroke-width="1" fill="none" fill-rule="evenodd">
        <g id="vimeo" transform="translate(-360.000000, -421.000000)">
            <g id="Group-7" transform="translate(360.000000, 421.000000)">
                <rect id="mic" fill="#444444" transform="translate(146.000000, 88.000000) scale(-1, 1) rotate(-90.000000) translate(-146.000000, -88.000000) " x="122" y="80" width="48" height="16" rx="8"></rect>
                <rect id="mic" fill="#444444" transform="translate(8.000000, 112.000000) scale(-1, 1) rotate(-90.000000) translate(-8.000000, -112.000000) " x="-16" y="104" width="48" height="16" rx="8"></rect>
                <rect id="mic" fill="#444444" transform="translate(146.000000, 180.000000) scale(-1, 1) rotate(-90.000000) translate(-146.000000, -180.000000) " x="122" y="172" width="48" height="16" rx="8"></rect>
                <rect id="mic" fill="#444444" transform="translate(146.000000, 134.000000) scale(-1, 1) rotate(-90.000000) translate(-146.000000, -134.000000) " x="130" y="126" width="32" height="16" rx="8"></rect>
                <path d="M11.5034989,29.972009 C11.7777089,27.778329 13.7882482,26 15.997336,26 L138.002664,26 C140.210332,26 142.22219,27.7775176 142.496501,29.972009 L145.503499,54.027991 C145.777709,56.221671 146,59.786164 146,62.0069687 L146,205.993031 C146,208.206019 145.77781,211.777518 145.503499,213.972009 L142.496501,238.027991 C142.222291,240.221671 140.211752,242 138.002664,242 L15.997336,242 C13.7896683,242 11.7778103,240.222482 11.5034989,238.027991 L8.49650112,213.972009 C8.22229112,211.778329 8,208.213836 8,205.993031 L8,62.0069687 C8,59.793981 8.2221897,56.2224824 8.49650112,54.027991 L11.5034989,29.972009 Z" id="Mask" fill="#333333"></path>
                <path d="M33.4500827,7.89768076 C34.1365129,3.53591212 38.2757266,0 42.699557,0 L112.612754,0 C117.034667,0 121.175385,3.53328944 121.862228,7.89768076 L127.559907,44.1023192 C128.246337,48.4640879 125.222107,52 120.797332,52 L34.5149785,52 C30.0936812,52 27.0655605,48.4667106 27.7524035,44.1023192 L33.4500827,7.89768076 Z" id="base" fill="#444444"></path>
                <path d="M28.2748332,223.897681 C27.5955903,219.535912 30.6177753,216 35.0511129,216 L120.261011,216 C124.682689,216 127.716942,219.533289 127.03729,223.897681 L121.399269,260.102319 C120.720026,264.464088 116.597227,268 112.17029,268 L43.1418339,268 C38.724052,268 34.5925055,264.466711 33.9128542,260.102319 L28.2748332,223.897681 Z" id="base" fill="#444444"></path>
                <g id="Your-screen">
                    <use fill="#DDDDDD" fill-rule="evenodd" xlink:href="#path-1"></use>
                    <use stroke="#DDDDDD" mask="url(#mask-2)" stroke-width="4" xlink:href="#path-1"></use>
                </g>
            </g>
        </g>
    </g>
</svg>