<?xml version="1.0" encoding="UTF-8" standalone="no"?>
<svg width="200px" height="416px" viewBox="0 0 200 416" version="1.1" xmlns="http://www.w3.org/2000/svg" xmlns:xlink="http://www.w3.org/1999/xlink">
    <!-- Generator: Sketch 40.3 (33839) - http://www.bohemiancoding.com/sketch -->
    <title>Group</title>
    <desc>Created with Sketch.</desc>
    <defs>
        <rect id="path-1" x="10" y="48" width="180" height="320"></rect>
        <mask id="mask-2" maskContentUnits="userSpaceOnUse" maskUnits="objectBoundingBox" x="-2" y="-2" width="184" height="324">
            <rect x="8" y="46" width="184" height="324" fill="white"></rect>
            <use xlink:href="#path-1" fill="black"></use>
        </mask>
        <rect id="path-3" x="84" y="376" width="32" height="32" rx="16"></rect>
        <mask id="mask-4" maskContentUnits="userSpaceOnUse" maskUnits="objectBoundingBox" x="0" y="0" width="32" height="32" fill="white">
            <use xlink:href="#path-3"></use>
        </mask>
    </defs>
    <g id="Devices" stroke="none" stroke-width="1" fill="none" fill-rule="evenodd">
        <g id="vimeo" transform="translate(-831.000000, -325.000000)">
            <g id="Group" transform="translate(831.000000, 325.000000)">
                <rect id="mic" fill="#444444" transform="translate(2.000000, 60.000000) scale(-1, 1) rotate(-90.000000) translate(-2.000000, -60.000000) " x="-6" y="58" width="16" height="4" rx="2"></rect>
                <rect id="mic" fill="#444444" transform="translate(2.000000, 104.000000) scale(-1, 1) rotate(-90.000000) translate(-2.000000, -104.000000) " x="-14" y="102" width="32" height="4" rx="2"></rect>
                <rect id="mic" fill="#444444" transform="translate(2.000000, 144.000000) scale(-1, 1) rotate(-90.000000) translate(-2.000000, -144.000000) " x="-14" y="142" width="32" height="4" rx="2"></rect>
                <rect id="mic" fill="#444444" transform="translate(198.000000, 104.000000) scale(-1, 1) rotate(-90.000000) translate(-198.000000, -104.000000) " x="182" y="102" width="32" height="4" rx="2"></rect>
                <rect id="base" fill="#333333" x="2" y="0" width="196" height="416" rx="32"></rect>
                <g id="Your-screen">
                    <use fill="#444444" fill-rule="evenodd" xlink:href="#path-1"></use>
                    <use stroke="#444444" mask="url(#mask-2)" stroke-width="4" xlink:href="#path-1"></use>
                </g>
                <circle id="sen" fill="#444444" cx="100" cy="11" r="3"></circle>
                <circle id="cam" fill="#444444" cx="65" cy="25" r="3"></circle>
                <rect id="mic" fill="#444444" x="76" y="22" width="48" height="6" rx="3"></rect>
                <use id="btn-5" stroke="#444444" mask="url(#mask-4)" stroke-width="4" xlink:href="#path-3"></use>
            </g>
        </g>
    </g>
</svg>