<?xml version="1.0" encoding="UTF-8" standalone="no"?>
<svg width="90px" height="104px" viewBox="0 0 90 104" version="1.1" xmlns="http://www.w3.org/2000/svg" xmlns:xlink="http://www.w3.org/1999/xlink">
    <!-- Generator: Sketch 40.3 (33839) - http://www.bohemiancoding.com/sketch -->
    <title>Group 8</title>
    <desc>Created with Sketch.</desc>
    <defs></defs>
    <g id="Devices" stroke="none" stroke-width="1" fill="none" fill-rule="evenodd">
        <g id="vimeo" transform="translate(-393.000000, -503.000000)">
            <g id="Group-8" transform="translate(393.000000, 503.000000)">
                <rect id="Rectangle-2" fill="#DDDDDD" x="0" y="0" width="90" height="104"></rect>
                <g id="Group" transform="translate(9.000000, 27.000000)" fill="#333333">
                    <path d="M36,44.6940063 C35.7619835,44.6940063 35.5239669,44.6069401 35.3454545,44.4473186 C35.2264463,44.3457413 32.5636364,41.9369085 29.8561983,38.0189274 C27.3421488,34.3766562 24.3520661,28.7028391 24.3520661,22.3760252 C24.3520661,16.0347003 27.3421488,10.3608833 29.8561983,6.73312303 C32.5636364,2.81514196 35.2264463,0.406309148 35.3454545,0.304731861 C35.7173554,-0.029022082 36.2826446,-0.029022082 36.6545455,0.304731861 C36.7735537,0.406309148 39.4363636,2.81514196 42.1438017,6.73312303 C44.6578512,10.3753943 47.6479339,16.0492114 47.6479339,22.3760252 C47.6479339,28.7173502 44.6578512,34.3911672 42.1438017,38.0189274 C39.4363636,41.9369085 36.7735537,44.3457413 36.6545455,44.4473186 C36.4760331,44.6069401 36.2380165,44.6940063 36,44.6940063 L36,44.6940063 Z M36,2.30725552 C33.7239669,4.6 26.3008264,12.7987382 26.3008264,22.3615142 C26.3008264,31.9533123 33.7239669,40.1375394 36,42.4157729 C38.2760331,40.1230284 45.6991736,31.9242902 45.6991736,22.3615142 C45.6991736,12.7697161 38.2760331,4.58548896 36,2.30725552 L36,2.30725552 Z" id="Shape"></path>
                    <path d="M36,44.6940063 C35.5834711,44.6940063 35.2115702,44.4328076 35.077686,44.0410095 C35.0330579,43.8958991 33.9173554,40.5148265 33.5454545,35.8132492 C33.2033058,31.4454259 33.4561983,25.0750789 36.6545455,19.5463722 C39.8528926,14.0176656 45.3123967,10.5205047 49.3289256,8.5615142 C53.6578512,6.44290221 57.1983471,5.63028391 57.3471074,5.58675079 C57.8380165,5.47066246 58.3289256,5.74637224 58.492562,6.21072555 C58.5371901,6.35583596 59.6528926,9.73690852 60.0247934,14.4384858 C60.3669421,18.8063091 60.1140496,25.1766562 56.9157025,30.7053628 C53.7173554,36.2195584 48.2578512,39.7312303 44.2413223,41.6902208 C39.9123967,43.8088328 36.3719008,44.6214511 36.2231405,44.6649842 C36.1487603,44.6794953 36.0743802,44.6940063 36,44.6940063 L36,44.6940063 Z M56.9008264,7.66182965 C53.7619835,8.5615142 43.1702479,12.1312303 38.3355372,20.4750789 C33.5157025,28.8044164 35.8363636,39.5135647 36.6694215,42.5899054 C39.8082645,41.6902208 50.4,38.1205047 55.2347107,29.7766562 C60.0694215,21.4328076 57.7338843,10.7381703 56.9008264,7.66182965 L56.9008264,7.66182965 Z" id="Shape"></path>
                    <path d="M45.446281,45.9274448 C40.046281,45.9274448 35.8958678,44.7665615 35.7322314,44.7230284 C35.2561983,44.592429 34.9586777,44.1135647 35.0479339,43.6347003 C35.077686,43.5041009 35.7619835,40.2536278 37.6661157,36.2485804 C39.4363636,32.5337539 42.6347107,27.4548896 47.8264463,24.3930599 C51.5603306,22.1873817 56.1719008,21.0700315 61.5123967,21.0700315 C66.9123967,21.0700315 71.0628099,22.2309148 71.2264463,22.2744479 C71.7024793,22.4050473 72,22.8839117 71.9107438,23.362776 C71.8809917,23.4933754 71.1966942,26.7438486 69.292562,30.7488959 C67.522314,34.4637224 64.3239669,39.5425868 59.1322314,42.6044164 C55.3983471,44.8100946 50.7867769,45.9274448 45.446281,45.9274448 L45.446281,45.9274448 Z M37.1603306,43.1268139 C38.6330579,43.4605678 41.7570248,44.0410095 45.446281,44.0410095 C50.4297521,44.0410095 54.6991736,43.0107256 58.1355372,40.9936909 C65.9008264,36.4082019 69.0099174,26.8018927 69.8132231,23.8706625 C68.3404959,23.5369085 65.2165289,22.9564669 61.5272727,22.9564669 C56.5438017,22.9564669 52.2743802,23.9867508 48.8380165,26.0037855 C41.0727273,30.5892744 37.9636364,40.1810726 37.1603306,43.1268139 L37.1603306,43.1268139 Z" id="Shape"></path>
                    <path d="M36.014876,44.6940063 C35.9404959,44.6940063 35.8661157,44.6794953 35.7917355,44.6649842 C35.6429752,44.6359621 32.1024793,43.8088328 27.7735537,41.6902208 C23.7570248,39.7312303 18.2975207,36.2195584 15.0991736,30.7053628 C11.9008264,25.1911672 11.6479339,18.8208202 11.9900826,14.4384858 C12.3619835,9.73690852 13.477686,6.35583596 13.522314,6.21072555 C13.6710744,5.74637224 14.1768595,5.47066246 14.6677686,5.58675079 C14.8165289,5.61577287 18.3570248,6.44290221 22.6859504,8.5615142 C26.7024793,10.5205047 32.1619835,14.0321767 35.3603306,19.5463722 C38.5586777,25.0605678 38.8115702,31.4309148 38.4694215,35.8132492 C38.0975207,40.5148265 36.9818182,43.8958991 36.9371901,44.0410095 C36.8033058,44.4328076 36.431405,44.6940063 36.014876,44.6940063 L36.014876,44.6940063 Z M15.1140496,7.66182965 C14.2809917,10.7381703 11.9603306,21.4473186 16.7801653,29.7766562 C21.614876,38.1205047 32.2066116,41.6902208 35.3454545,42.5899054 C36.1785124,39.5135647 38.4991736,28.8044164 33.6793388,20.4750789 C28.8446281,12.1167192 18.2528926,8.5615142 15.1140496,7.66182965 L15.1140496,7.66182965 Z" id="Shape"></path>
                    <path d="M26.553719,45.9274448 L26.553719,45.9274448 C21.2132231,45.9274448 16.6016529,44.8100946 12.8677686,42.6044164 C7.67603306,39.5425868 4.46280992,34.4637224 2.70743802,30.7488959 C0.803305785,26.7438486 0.119008264,23.5078864 0.0892561983,23.362776 C-0.0148760331,22.8839117 0.282644628,22.4050473 0.773553719,22.2744479 C0.952066116,22.2309148 5.08760331,21.0700315 10.4876033,21.0700315 C15.8280992,21.0700315 20.4396694,22.1873817 24.1735537,24.3930599 C29.3652893,27.4548896 32.5785124,32.5337539 34.3338843,36.2485804 C36.2380165,40.2536278 36.922314,43.4895899 36.9520661,43.6347003 C37.0561983,44.1135647 36.7586777,44.592429 36.2677686,44.7230284 C36.0892562,44.7665615 31.953719,45.9274448 26.553719,45.9274448 L26.553719,45.9274448 Z M2.18677686,23.8561514 C2.99008264,26.8018927 6.11404959,36.4082019 13.8644628,40.9791798 C17.3008264,43.0107256 21.5702479,44.0264984 26.553719,44.0264984 C30.2429752,44.0264984 33.3669421,43.4460568 34.8396694,43.1123028 C34.0363636,40.1665615 30.9123967,30.5602524 23.1619835,25.9892744 C19.7256198,23.9577287 15.4561983,22.9419558 10.4727273,22.9419558 C6.76859504,22.9419558 3.65950413,23.5369085 2.18677686,23.8561514 L2.18677686,23.8561514 Z" id="Shape"></path>
                </g>
            </g>
        </g>
    </g>
</svg>