<?xml version="1.0" encoding="UTF-8" standalone="no"?>
<svg width="400px" height="250px" viewBox="0 0 400 250" version="1.1" xmlns="http://www.w3.org/2000/svg" xmlns:xlink="http://www.w3.org/1999/xlink">
    <!-- Generator: Sketch 40.3 (33839) - http://www.bohemiancoding.com/sketch -->
    <title>Group 10</title>
    <desc>Created with Sketch.</desc>
    <defs></defs>
    <g id="Devices" stroke="none" stroke-width="1" fill="none" fill-rule="evenodd">
        <g id="Group-10">
            <g id="Group-8">
                <rect id="Rectangle-8" fill="#444444" x="0" y="0" width="400" height="250"></rect>
                <g id="Group" transform="translate(60.000000, 29.000000)">
                    <rect id="Rectangle-2" fill="#1AB7EA" x="0" y="0" width="280" height="191.333333"></rect>
                    <rect id="Rectangle-3" fill="#DDDDDD" x="0" y="0" width="280" height="12.4444444"></rect>
                    <circle id="cam" fill="#FC635D" cx="6.22222222" cy="6.22222222" r="3.88888889"></circle>
                    <ellipse id="cam" fill="#FDBD41" cx="16.3333333" cy="6.22222222" rx="3.88888889" ry="3.88888889"></ellipse>
                    <circle id="cam" fill="#35CC4B" cx="26.4444444" cy="6.22222222" r="3.88888889"></circle>
                </g>
            </g>
            <path d="M220.142194,111.850552 C219.072078,110.720985 217.526354,110.067025 215.564475,110.007574 C209.97609,109.829222 206.052331,112.801766 203.852648,118.806307 C203.733746,119.103562 203.793197,119.460267 204.031,119.698071 C204.268804,119.935874 204.625509,120.054776 204.922764,119.935874 C205.576724,119.757522 206.171233,119.698071 206.765742,119.698071 C207.598054,119.698071 208.66817,119.876423 209.203228,120.530383 C209.619385,121.065441 209.678836,121.897754 209.381581,122.96787 C209.143778,123.859633 207.835858,126.29712 206.171233,128.853509 C204.209353,131.944956 203.079786,133.371777 202.782531,133.371777 C201.712415,133.371777 197.967009,116.606624 197.848107,116.249919 C196.777991,112.38561 196.242933,110.483181 192.675879,110.483181 C190.060039,110.542632 184.055499,115.477057 179.180525,119.757522 C178.82382,119.995325 178.586016,120.233129 178.407663,120.411481 C177.932056,120.827638 177.872605,121.481598 178.229311,122.016656 L179.180525,123.205674 C179.53723,123.681281 180.250641,123.800183 180.785699,123.443477 L180.84515,123.384026 C182.450324,122.254459 183.936597,121.184343 185.066164,121.124892 C186.314633,121.065441 187.384749,122.96787 188.633218,127.545589 C191.070705,136.463224 194.75666,147.045484 198.561518,147.045484 C202.544728,147.045484 207.241349,143.716233 213.364791,135.749813 C218.834274,128.615705 221.747368,122.908419 221.985172,118.746856 L221.985172,118.746856 C222.104073,115.595959 221.509564,113.277374 220.142194,111.850552 L220.142194,111.850552 Z" id="Shape" fill="#FFFFFF"></path>
        </g>
    </g>
</svg>